<svg xmlns="http://www.w3.org/2000/svg" width="17.5" height="20" viewBox="0 0 17.5 20">
  <path id="Icon_awesome-discord" data-name="Icon awesome-discord" d="M11.61,9.5a1.024,1.024,0,1,1-1.02-1.11A1.065,1.065,0,0,1,11.61,9.5ZM6.94,8.39a1.114,1.114,0,0,0,0,2.22A1.065,1.065,0,0,0,7.96,9.5,1.059,1.059,0,0,0,6.94,8.39ZM17.5,2.06V20c-2.519-2.226-1.714-1.489-4.64-4.21l.53,1.85H2.05A2.055,2.055,0,0,1,0,15.58V2.06A2.055,2.055,0,0,1,2.05,0h13.4A2.055,2.055,0,0,1,17.5,2.06Zm-2.85,9.48a13.392,13.392,0,0,0-1.44-5.83A4.945,4.945,0,0,0,10.4,4.66l-.14.16a6.655,6.655,0,0,1,2.49,1.27A8.5,8.5,0,0,0,5.28,5.8c-.37.17-.59.29-.59.29A6.746,6.746,0,0,1,7.32,4.78l-.1-.12A4.945,4.945,0,0,0,4.41,5.71a13.392,13.392,0,0,0-1.44,5.83,3.626,3.626,0,0,0,3.05,1.52s.37-.45.67-.83a3.11,3.11,0,0,1-1.75-1.18c.147.1.39.236.41.25a7.289,7.289,0,0,0,6.24.35,5.722,5.722,0,0,0,1.15-.59,3.155,3.155,0,0,1-1.81,1.19c.3.38.66.81.66.81A3.655,3.655,0,0,0,14.65,11.54Z" fill="#fff"/>
</svg>
