<?xml version="1.0" encoding="utf-8"?>
<!-- Generator: Adobe Illustrator 26.0.1, SVG Export Plug-In . SVG Version: 6.00 Build 0)  -->
<svg version="1.1" id="Layer_1" xmlns="http://www.w3.org/2000/svg" xmlns:xlink="http://www.w3.org/1999/xlink" x="0px" y="0px"
	 viewBox="0 0 1125 1316.8" style="enable-background:new 0 0 1125 1316.8;" xml:space="preserve">
<style type="text/css">
	.st0{fill:#FFFFFF;}
</style>
<g>
	<path class="st0" d="M56.1,166.2c0-15.9,0-31.1,0-47c8.9,0.6,18,0.9,27.1,1.8c53.1,5,104,18.3,152.4,41
		c51.9,24.4,97.5,57.7,139,97.1c40.7,38.6,76.3,81.7,109.7,126.7c1.2,1.6,2.4,3.2,3.9,5.1c5.1-3.6,10-7.1,15.5-11
		c-17.8-25.3-35.2-50.5-53.1-75.3c-28.5-39.4-59.1-77.2-93.4-111.8c-51.7-52.4-110-94.9-180.2-119.4C138.1,59.8,98.1,52.7,57.2,50.8
		c-1.1-0.1-2.3-0.1-4.5-0.3c0-16.2,0-32.2,0-49c8.5,0.5,17.6,0.8,26.7,1.5C137,8.1,191.9,22.7,243.9,48.4
		c42.4,20.9,80.6,47.9,115.8,79.2c49.1,43.7,91,94,129.5,147c17.8,24.5,34.8,49.6,52.2,74.4c0.9,1.3,1.9,2.6,3,4.1
		c10.8-6.1,21.2-12.2,31.9-18c46.8-25.2,95.6-45.1,148.2-54.8c37.9-7,75.8-9,113.2,2.4c57.1,17.4,91,55.9,101.4,114.7
		c7.1,39.8,2.1,78.9-8.6,117.5c-16.2,58.4-43.7,111.2-77.5,161.1c-6.2,9.1-12.7,18.1-20.1,26.5c1.2-1.9,2.3-3.8,3.5-5.7
		c29.7-48.3,55.6-98.5,71.9-153c10.7-35.7,17.9-72,16.4-109.5c-1-24.3-6-47.8-17.4-69.6c-17.2-32.9-45.3-51.4-80.7-59.8
		c-32.1-7.6-64.1-5.2-96.1,1.4c-53,10.9-101.7,32.7-148.6,59.2c-6.7,3.8-13.2,7.8-19.8,11.7c-0.4,0.2-0.7,0.7-1.2,1.3
		c7.8,11.8,15.3,23.7,23.3,35.3c33.8,49.3,66.9,99,101.8,147.5c33.6,46.7,71.5,89.8,114.9,127.9c54.4,47.8,115.4,83.3,186.4,99.6
		c22.9,5.3,46.4,8.2,70.9,12.3c0,14.7,0,30.7,0,47.6c-9.2-0.8-19.1-1.5-28.9-2.6c-51.6-6.2-100.9-20.4-147.6-43.4
		c-43.9-21.7-83.4-49.7-119.6-82.5c-50.7-45.8-94-98.1-133.1-153.8c-36-51.4-70.5-103.8-105.6-155.8c-1.1-1.6-2.2-3.3-3.7-5.6
		c-4.7,3.4-9.2,6.6-13.9,10c0.5,1,0.8,1.8,1.2,2.4c39.4,58.7,78.7,117.5,118.2,176.2c34.4,51.1,70.1,101.3,110.8,147.7
		c42.1,48,88.6,90.7,144.3,122.6c50.1,28.6,103.9,45.8,161.3,51.5c6.4,0.6,12.9,1.2,20.3,1.9c0,15.5,0,30.9,0,47
		c-8.9-0.7-18.5-1.3-28-2.3c-60.7-6.7-118-24.5-171.5-54.2c-42.6-23.7-80.8-53.3-115.8-87.1c-44.2-42.6-82.2-90.3-117.9-140
		c-1.1-1.5-1.4-4.4-0.8-6.1c6.4-18.1,3.2-34.1-10.2-47.8c-8.1-8.3-16.5-16.5-24.7-24.8c-6.8-6.8-14.8-11.1-24.3-12.9
		c-2.2-0.4-4.6-2.6-5.9-4.5c-27.3-40.8-54.5-81.7-81.8-122.5c-4-5.9-8.2-11.7-12.6-17.9c-6.3,5.4-12.4,10.5-17.6,15
		c31.8,44.2,63.3,87.9,93.9,130.6c-11.8,10.8-22.5,20.6-33.4,30.6c-15.1-21.8-30-44-45.6-65.7c-15.6-21.7-31.8-43-47.5-64.3
		c-7.9,7.9-15.1,15.1-22.3,22.3c11.1,12.4,23.3,24.8,34.1,38.2c22.2,27.5,43.7,55.4,65.3,83.3c1.1,1.4,1.4,4.4,0.7,6.1
		c-7.1,17.5-3.8,35.4,9.5,48.8c8.2,8.3,16.5,16.4,24.7,24.8c7,7.1,15.3,11.7,25.2,13c3.2,0.4,4.9,1.8,6.6,4.3
		c30.6,45.8,60.8,91.9,92,137.3c31.5,45.9,65.6,89.8,104,130.2c46.1,48.4,97.5,89.6,159,117c46.4,20.7,95.1,31.9,145.8,34.5
		c1.6,0.1,3.3,0.2,6,0.4c0,15.5,0,31,0,47.6c-17.4-1.8-35.1-3-52.7-5.5c-47.1-6.7-92.1-20.7-134.7-41.8c-36.4-18-69.9-40.6-101-66.6
		c-49.1-41.1-90.7-89-129.3-139.7c-44.5-58.7-84.3-120.5-124.9-181.9c-34.1-51.5-68.3-102.9-107.1-151c-17.7-22-36.5-43.1-55.5-65.4
		c-8.8,10.5-16.8,20-24.6,29.4c11.5,10.2,22.7,19.8,33.5,30c43.3,40.5,81.6,85.6,115.6,134.1c41.2,58.7,80.9,118.4,121,177.9
		c34.6,51.4,69.3,102.7,108.7,150.5c40.2,48.8,84.3,93.4,137.2,128.7c57.6,38.4,120.7,61.3,189.7,67.6c8.9,0.8,17.8,1.5,27.8,2.3
		c0,15.9,0,31.8,0,48.3c-2.9,0-6.6,0.2-10.3,0c-61.7-3.3-120.7-17.4-176.4-44.2c-44.3-21.3-84.1-49.1-120.7-81.8
		c-52.6-46.9-97.3-100.9-137.5-158.5c-39-55.8-76.4-112.6-114.3-169.2c-38.7-57.7-77.9-114.9-123.7-167.3
		c-23.9-27.4-49.4-53.2-77.4-76.4c-0.8-0.6-1.6-1.2-2.9-2.2c-2.6,3.7-5.2,7.3-7.7,11C268,675.3,239.7,727.1,221,783.8
		c-10.4,31.6-17.5,63.9-17.3,97.3c0.1,25.5,3.9,50.5,15.9,73.5c18.1,34.8,47.7,54.1,85.1,62.5c30.5,6.9,61.2,5.4,91.8,0.4
		c54.9-8.9,105.7-29.8,155-54.9c3-1.6,6.1-3.1,9.1-4.7c0.2,0.4,0.4,0.7,0.6,1.1c-6.8,4.2-13.6,8.4-20.6,12.5
		c-44.3,26-90.6,47-141,58c-33.3,7.3-66.7,9.9-100.6,3.7c-59.8-10.9-102.4-52.9-114.5-113.2c-8-39.6-4.9-78.8,4.5-117.7
		c15.6-64.8,44-123.9,79.7-179.7c5.5-8.5,11.2-16.9,17-25.7c-65.1-47.4-137.5-74.1-218.7-79.5c0-16.3,0-32.3,0-49
		c90.9,5,173.6,35,248,89.2c8.8-10.5,17.5-21,26.5-31.8c-77.7-74.3-168.4-119.9-278-126c0-15.7,0-31.1,0-47
		c120.8,5.7,222.7,55.4,309.8,138.2c8.2-8.4,16-16.5,24.3-25.1c-8.7-9.6-17.6-19.7-26.8-29.5c-35.1-37.3-73.5-70.4-117.6-96.9
		c-49.3-29.6-102.5-48-159.6-54.9c-9.9-1.2-19.9-2.1-29.8-2.8c-2.8-0.2-3.8-1-3.8-3.8c0.1-13.3,0-26.6,0-40.6
		c7.5,0.5,15.9,0.9,24.3,1.7c110.7,10.3,204.2,57.6,284.2,133.1c20.8,19.6,39.8,41.1,59.6,61.8c0.8,0.8,1.5,1.7,2.6,2.8
		c6.7-5.7,13.3-11.2,20.3-17.1c-5.5-7.4-10.8-14.6-16.3-21.7c-33.8-44.3-70.1-86.3-112.3-122.9c-55.3-48-117.5-82.9-189.6-98.9
		c-23.1-5.1-46.5-8.4-70.1-9.6C60.8,166.6,59,166.4,56.1,166.2z"/>
	<path class="st0" d="M0,0c7.2,0,14,0,21.4,0c0.4,9.7,0.8,19.2,1.1,28.8c1.3,43.1,2.6,86.1,3.9,129.2c1.2,40.1,2.4,80.2,3.6,120.2
		c1.8,58.5,3.6,117.1,5.4,175.6c1.2,40.2,2.4,80.5,3.6,120.7c1.8,58.9,3.6,117.7,5.4,176.6c1.1,37.8,2.1,75.5,3.3,113.3
		c1.5,51.2,3.1,102.4,4.7,153.7c1.1,35.8,1.9,71.5,3.4,107.3c1,24.1,2.8,48.2,8.7,71.7c4.1,16.2,11.7,29.9,25.7,39.7
		c1.5,1,2.7,3.5,2.7,5.3c-0.1,24.5-0.4,48.9-0.6,73.4c0,0.3-0.2,0.6-0.4,1.3c-30.4,0-60.9,0-91.8,0C0,877.9,0,439.2,0,0z"/>
	<path class="st0" d="M1033.4,0c30.5,0,60.9,0,91.6,0c0,439,0,877.7,0,1316.7c-7,0-13.7,0-21.1,0c-0.4-9.2-0.8-18.3-1.1-27.4
		c-1.3-43.1-2.6-86.1-3.9-129.2c-1.2-40.2-2.4-80.5-3.6-120.7c-1.6-52.4-3.1-104.8-4.7-157.2c-1.3-43.7-2.7-87.5-4-131.2
		c-1.7-55.2-3.3-110.4-5-165.6c-1.3-44.2-2.7-88.5-4-132.7c-1.3-44.6-2.6-89.1-4-133.7c-1.5-47.2-2.9-94.5-5-141.7
		c-0.9-21.1-3.2-42.1-9.2-62.6c-4.1-14-11.7-25.6-23.6-34.3c-1.7-1.2-3.3-3.9-3.3-6c0-24.1,0.3-48.3,0.5-72.4
		C1033.1,1.5,1033.3,0.8,1033.4,0z"/>
	<path class="st0" d="M580.4,725c11.1-10.3,21.7-20.3,32.5-30.4c10.4,15.3,20.8,30.7,31.4,46c32.9,47.5,67.4,93.8,106.8,136.2
		c39.5,42.4,83,79.7,133.9,107.9c48.7,26.9,100.7,43,156.1,48.5c7.8,0.8,15.5,1.4,24.2,2.2c0,14.4,0,28.8,0,44
		c-10.3-0.8-21.4-1.5-32.4-2.7c-52.9-5.9-103.3-20.3-151-44c-41-20.3-78.1-46.3-112.3-76.5c-52.9-46.6-97.2-100.8-138.2-157.8
		c-16.6-23.1-32.5-46.7-48.7-70.1C581.7,727,580.8,725.5,580.4,725z"/>
</g>
</svg>
